<mxfile host="app.diagrams.net" agent="Mozilla/5.0 (Windows NT 10.0; Win64; x64) AppleWebKit/537.36 (KHTML, like Gecko) Chrome/134.0.0.0 Safari/537.36 Edg/134.0.0.0" version="26.2.3" pages="2">
  <diagram name="Modelo Conceitual" id="lQObO2zVWyFt1zHeVum0">
    <mxGraphModel dx="863" dy="475" grid="1" gridSize="10" guides="1" tooltips="1" connect="1" arrows="1" fold="1" page="1" pageScale="1" pageWidth="827" pageHeight="1169" math="0" shadow="0">
      <root>
        <mxCell id="0" />
        <mxCell id="1" parent="0" />
        <mxCell id="z-CXt940HgK7hpkrll2q-1" value="Medico" style="whiteSpace=wrap;html=1;align=center;" vertex="1" parent="1">
          <mxGeometry x="90" y="140" width="125" height="50" as="geometry" />
        </mxCell>
        <mxCell id="z-CXt940HgK7hpkrll2q-2" value="Paciente" style="whiteSpace=wrap;html=1;align=center;" vertex="1" parent="1">
          <mxGeometry x="690" y="140" width="125" height="50" as="geometry" />
        </mxCell>
        <mxCell id="z-CXt940HgK7hpkrll2q-12" value="" style="edgeStyle=orthogonalEdgeStyle;rounded=0;orthogonalLoop=1;jettySize=auto;html=1;endArrow=none;startFill=0;" edge="1" parent="1" source="z-CXt940HgK7hpkrll2q-3" target="z-CXt940HgK7hpkrll2q-6">
          <mxGeometry relative="1" as="geometry" />
        </mxCell>
        <mxCell id="z-CXt940HgK7hpkrll2q-13" value="" style="edgeStyle=orthogonalEdgeStyle;rounded=0;orthogonalLoop=1;jettySize=auto;html=1;endArrow=none;startFill=0;" edge="1" parent="1" source="z-CXt940HgK7hpkrll2q-3" target="z-CXt940HgK7hpkrll2q-7">
          <mxGeometry relative="1" as="geometry" />
        </mxCell>
        <mxCell id="z-CXt940HgK7hpkrll2q-16" value="" style="edgeStyle=orthogonalEdgeStyle;rounded=0;orthogonalLoop=1;jettySize=auto;html=1;endArrow=none;startFill=0;" edge="1" parent="1" source="z-CXt940HgK7hpkrll2q-3" target="z-CXt940HgK7hpkrll2q-15">
          <mxGeometry relative="1" as="geometry" />
        </mxCell>
        <mxCell id="z-CXt940HgK7hpkrll2q-3" value="Consulta" style="whiteSpace=wrap;html=1;align=center;" vertex="1" parent="1">
          <mxGeometry x="390" y="140" width="125" height="50" as="geometry" />
        </mxCell>
        <mxCell id="z-CXt940HgK7hpkrll2q-18" value="" style="edgeStyle=orthogonalEdgeStyle;rounded=0;orthogonalLoop=1;jettySize=auto;html=1;endArrow=none;startFill=0;" edge="1" parent="1" source="z-CXt940HgK7hpkrll2q-5" target="z-CXt940HgK7hpkrll2q-15">
          <mxGeometry relative="1" as="geometry" />
        </mxCell>
        <mxCell id="z-CXt940HgK7hpkrll2q-5" value="Localidade" style="whiteSpace=wrap;html=1;align=center;" vertex="1" parent="1">
          <mxGeometry x="390" y="310" width="125" height="50" as="geometry" />
        </mxCell>
        <mxCell id="z-CXt940HgK7hpkrll2q-9" value="" style="edgeStyle=orthogonalEdgeStyle;rounded=0;orthogonalLoop=1;jettySize=auto;html=1;endArrow=none;startFill=0;" edge="1" parent="1" source="z-CXt940HgK7hpkrll2q-6" target="z-CXt940HgK7hpkrll2q-1">
          <mxGeometry relative="1" as="geometry" />
        </mxCell>
        <mxCell id="z-CXt940HgK7hpkrll2q-6" value="Possui" style="shape=rhombus;perimeter=rhombusPerimeter;whiteSpace=wrap;html=1;align=center;" vertex="1" parent="1">
          <mxGeometry x="260" y="140" width="100" height="50" as="geometry" />
        </mxCell>
        <mxCell id="z-CXt940HgK7hpkrll2q-14" value="" style="edgeStyle=orthogonalEdgeStyle;rounded=0;orthogonalLoop=1;jettySize=auto;html=1;endArrow=none;startFill=0;" edge="1" parent="1" source="z-CXt940HgK7hpkrll2q-7" target="z-CXt940HgK7hpkrll2q-2">
          <mxGeometry relative="1" as="geometry" />
        </mxCell>
        <mxCell id="z-CXt940HgK7hpkrll2q-7" value="Possui" style="shape=rhombus;perimeter=rhombusPerimeter;whiteSpace=wrap;html=1;align=center;" vertex="1" parent="1">
          <mxGeometry x="550" y="140" width="100" height="50" as="geometry" />
        </mxCell>
        <mxCell id="z-CXt940HgK7hpkrll2q-15" value="Possui" style="shape=rhombus;perimeter=rhombusPerimeter;whiteSpace=wrap;html=1;align=center;" vertex="1" parent="1">
          <mxGeometry x="402.5" y="230" width="100" height="50" as="geometry" />
        </mxCell>
        <mxCell id="z-CXt940HgK7hpkrll2q-19" value="(1, 1)" style="text;html=1;align=center;verticalAlign=middle;resizable=0;points=[];autosize=1;strokeColor=none;fillColor=none;" vertex="1" parent="1">
          <mxGeometry x="215" y="130" width="50" height="30" as="geometry" />
        </mxCell>
        <mxCell id="z-CXt940HgK7hpkrll2q-20" value="(0, N)" style="text;html=1;align=center;verticalAlign=middle;resizable=0;points=[];autosize=1;strokeColor=none;fillColor=none;" vertex="1" parent="1">
          <mxGeometry x="340" y="130" width="50" height="30" as="geometry" />
        </mxCell>
        <mxCell id="z-CXt940HgK7hpkrll2q-21" value="Consulta precisa ter um médico&lt;br&gt;E pode ter no máximo 1 médico" style="text;html=1;align=center;verticalAlign=middle;resizable=0;points=[];autosize=1;strokeColor=none;fillColor=none;" vertex="1" parent="1">
          <mxGeometry x="105" y="83" width="190" height="40" as="geometry" />
        </mxCell>
        <mxCell id="z-CXt940HgK7hpkrll2q-22" value="Médico não precisa ter consultas&lt;br&gt;E pode ter infinitas consultas" style="text;html=1;align=center;verticalAlign=middle;resizable=0;points=[];autosize=1;strokeColor=none;fillColor=none;" vertex="1" parent="1">
          <mxGeometry x="290" y="83" width="200" height="40" as="geometry" />
        </mxCell>
        <mxCell id="z-CXt940HgK7hpkrll2q-23" value="(1, 1)" style="text;html=1;align=center;verticalAlign=middle;resizable=0;points=[];autosize=1;strokeColor=none;fillColor=none;" vertex="1" parent="1">
          <mxGeometry x="640" y="130" width="50" height="30" as="geometry" />
        </mxCell>
        <mxCell id="z-CXt940HgK7hpkrll2q-24" value="(0, N)" style="text;html=1;align=center;verticalAlign=middle;resizable=0;points=[];autosize=1;strokeColor=none;fillColor=none;" vertex="1" parent="1">
          <mxGeometry x="515" y="130" width="50" height="30" as="geometry" />
        </mxCell>
        <mxCell id="z-CXt940HgK7hpkrll2q-25" value="(1, 1)" style="text;html=1;align=center;verticalAlign=middle;resizable=0;points=[];autosize=1;strokeColor=none;fillColor=none;" vertex="1" parent="1">
          <mxGeometry x="452.5" y="280" width="50" height="30" as="geometry" />
        </mxCell>
        <mxCell id="z-CXt940HgK7hpkrll2q-26" value="Paciente não precisa de consulta&lt;br&gt;E pode ter infinitas consultas" style="text;html=1;align=center;verticalAlign=middle;resizable=0;points=[];autosize=1;strokeColor=none;fillColor=none;" vertex="1" parent="1">
          <mxGeometry x="480" y="83" width="200" height="40" as="geometry" />
        </mxCell>
        <mxCell id="z-CXt940HgK7hpkrll2q-27" value="(0, N)" style="text;html=1;align=center;verticalAlign=middle;resizable=0;points=[];autosize=1;strokeColor=none;fillColor=none;" vertex="1" parent="1">
          <mxGeometry x="452.5" y="190" width="50" height="30" as="geometry" />
        </mxCell>
        <mxCell id="z-CXt940HgK7hpkrll2q-28" value="Consulta precisa ter um paciente&lt;br&gt;E pode ter no máximo 1 cliente" style="text;html=1;align=center;verticalAlign=middle;resizable=0;points=[];autosize=1;strokeColor=none;fillColor=none;" vertex="1" parent="1">
          <mxGeometry x="630" y="43" width="200" height="40" as="geometry" />
        </mxCell>
      </root>
    </mxGraphModel>
  </diagram>
  <diagram id="CRshvavJHdEiDE6EXVRU" name="Modelo Lógico">
    <mxGraphModel dx="1036" dy="570" grid="1" gridSize="10" guides="1" tooltips="1" connect="1" arrows="1" fold="1" page="1" pageScale="1" pageWidth="827" pageHeight="1169" math="0" shadow="0">
      <root>
        <mxCell id="0" />
        <mxCell id="1" parent="0" />
      </root>
    </mxGraphModel>
  </diagram>
</mxfile>
